<svg xmlns="http://www.w3.org/2000/svg" width="35.007" height="32.125" viewBox="0 0 35.007 32.125">
  <g id="Groupe_51923" data-name="Groupe 51923" transform="translate(0.5 0.5)">
    <path id="Tracé_80361" data-name="Tracé 80361" d="M46.016,33.86l-.357-.31.234-.41a2.625,2.625,0,0,0,.333-1.366,2.572,2.572,0,0,0-2.646-2.58H42.3a.577.577,0,0,0-.576.576v8.07a.577.577,0,0,0,.576.576h2.017a2.594,2.594,0,0,0,1.7-4.556Zm-3.138-3.514h.7a1.432,1.432,0,0,1,1.1.445,1.558,1.558,0,0,1,.393,1.01,1.415,1.415,0,0,1-.341.987,1.479,1.479,0,0,1-1.153.44h-.7Zm1.441,6.917H42.878V34.382h1.441a1.441,1.441,0,0,1,0,2.882Z" transform="translate(-27.892 -15.361)" fill="#fff"/>
    <path id="Tracé_80361_-_Contour" data-name="Tracé 80361 - Contour" d="M44.319,38.916H42.3a1.078,1.078,0,0,1-1.076-1.076V29.77A1.078,1.078,0,0,1,42.3,28.694H43.58a3.052,3.052,0,0,1,2.315.97,3.205,3.205,0,0,1,.83,2.1,3.123,3.123,0,0,1-.4,1.625l-.031.055.047.041a3.094,3.094,0,0,1-2.025,5.433ZM42.3,29.694a.076.076,0,0,0-.076.076v8.07a.077.077,0,0,0,.076.076h2.017a2.094,2.094,0,0,0,1.37-3.678l-.668-.58.437-.767a2.124,2.124,0,0,0,.268-1.105,2.065,2.065,0,0,0-2.146-2.093Zm2.017,8.07H42.378V33.882h1.941a1.941,1.941,0,0,1,0,3.882Zm-.941-1h.941a.941.941,0,0,0,0-1.882h-.941Zm.2-3.035h-1.2V29.847h1.2a1.918,1.918,0,0,1,1.47.608,2.061,2.061,0,0,1,.524,1.335,1.915,1.915,0,0,1-.469,1.333A1.964,1.964,0,0,1,43.58,33.729Zm-.2-1h.2a1,1,0,0,0,.783-.276.921.921,0,0,0,.212-.64,1.064,1.064,0,0,0-.26-.681.947.947,0,0,0-.734-.284h-.2Z" transform="translate(-27.892 -15.361)" fill="#fff"/>
    <path id="Tracé_80362" data-name="Tracé 80362" d="M38.161,29.6a.6.6,0,0,0-1.108,0l-2.306,8.07a.576.576,0,0,0,1.108.317l.21-.734h3.083l.21.734a.577.577,0,0,0,1.109-.316Zm-1.767,6.5,1.213-4.241L38.82,36.1Z" transform="translate(-28.961 -15.354)" fill="#fff"/>
    <path id="Tracé_80362_-_Contour" data-name="Tracé 80362 - Contour" d="M37.608,28.736a1.044,1.044,0,0,1,1.035.733l2.305,8.07a1.076,1.076,0,0,1-.742,1.33h0a1.084,1.084,0,0,1-.811-.1,1.067,1.067,0,0,1-.512-.642l-.107-.373H36.443l-.106.372a1.067,1.067,0,0,1-.511.644,1.086,1.086,0,0,1-.815.1h0a1.074,1.074,0,0,1-.738-1.331l2.305-8.069A1.044,1.044,0,0,1,37.608,28.736Zm.076,1.016a.189.189,0,0,0-.152,0l-2.3,8.06a.074.074,0,0,0,.05.094.078.078,0,0,0,.055,0l.007,0a.07.07,0,0,0,.034-.045l.313-1.1h3.837l.313,1.1a.071.071,0,0,0,.035.043l.006,0a.075.075,0,0,0,.055,0,.071.071,0,0,0,.044-.036.068.068,0,0,0,.007-.055Zm-.076.293,1.876,6.56H35.731Zm.55,5.56-.55-1.922-.55,1.922Z" transform="translate(-28.961 -15.354)" fill="#fff"/>
    <path id="Tracé_80363" data-name="Tracé 80363" d="M59.7,27.569H57.968V24.975a.578.578,0,0,0-.172-.41l-7.3-7.2a.577.577,0,0,0-.406-.166H36.95a2.03,2.03,0,0,0-2.037,2.017v8.358H33.76A4.04,4.04,0,0,0,29.725,31.6v8.07a4.04,4.04,0,0,0,4.035,4.035h1.153V46.3a2.03,2.03,0,0,0,2.037,2.017H55.933A2.029,2.029,0,0,0,57.968,46.3V43.708H59.7a4.039,4.039,0,0,0,4.035-4.035V31.6A4.039,4.039,0,0,0,59.7,27.569Zm-9.03-8.42,5.32,5.25H51.551a.876.876,0,0,1-.883-.865Zm-14.6.062a.875.875,0,0,1,.884-.865H49.515v5.188a2.029,2.029,0,0,0,2.036,2.017h5.265v2.017H36.065ZM56.816,46.3a.875.875,0,0,1-.883.865H36.95a.876.876,0,0,1-.884-.865V43.708h20.75Zm5.764-6.629A2.885,2.885,0,0,1,59.7,42.555H33.76a2.885,2.885,0,0,1-2.882-2.882V31.6a2.885,2.885,0,0,1,2.882-2.882H59.7A2.885,2.885,0,0,1,62.58,31.6Z" transform="translate(-29.725 -17.194)" fill="#fff"/>
    <path id="Tracé_80363_-_Contour" data-name="Tracé 80363 - Contour" d="M36.95,16.694H50.091a1.074,1.074,0,0,1,.756.309l7.3,7.206a1.079,1.079,0,0,1,.321.766v2.094H59.7A4.54,4.54,0,0,1,64.232,31.6v8.07A4.54,4.54,0,0,1,59.7,44.208H58.468V46.3a2.53,2.53,0,0,1-2.536,2.517H36.95A2.53,2.53,0,0,1,34.413,46.3V44.208H33.76a4.54,4.54,0,0,1-4.535-4.535V31.6a4.54,4.54,0,0,1,4.535-4.535h.653V19.211A2.53,2.53,0,0,1,36.95,16.694ZM59.7,43.208a3.539,3.539,0,0,0,3.535-3.535V31.6A3.539,3.539,0,0,0,59.7,28.069H57.468V24.975a.078.078,0,0,0-.022-.053l-7.3-7.206a.076.076,0,0,0-.055-.022H36.95a1.529,1.529,0,0,0-1.537,1.517v8.858H33.76A3.539,3.539,0,0,0,30.225,31.6v8.07a3.539,3.539,0,0,0,3.535,3.535h1.653V46.3a1.529,1.529,0,0,0,1.537,1.517H55.933A1.528,1.528,0,0,0,57.468,46.3V43.208ZM36.95,17.847H50.015v5.688a1.528,1.528,0,0,0,1.536,1.517h5.765v3.017H35.565V19.211A1.376,1.376,0,0,1,36.95,17.847Zm12.065,1H36.95a.375.375,0,0,0-.384.365v7.858h19.75V26.052H51.551a2.53,2.53,0,0,1-2.536-2.517Zm1.153-.893L57.206,24.9H51.551a1.375,1.375,0,0,1-1.383-1.365Zm4.6,5.946-3.6-3.554v3.189a.375.375,0,0,0,.383.365ZM33.76,28.222H59.7A3.386,3.386,0,0,1,63.08,31.6v8.07A3.386,3.386,0,0,1,59.7,43.055H33.76a3.386,3.386,0,0,1-3.382-3.382V31.6A3.386,3.386,0,0,1,33.76,28.222ZM59.7,42.055a2.385,2.385,0,0,0,2.382-2.382V31.6A2.385,2.385,0,0,0,59.7,29.222H33.76A2.385,2.385,0,0,0,31.378,31.6v8.07a2.385,2.385,0,0,0,2.382,2.382ZM35.565,43.208h21.75V46.3a1.375,1.375,0,0,1-1.383,1.365H36.95A1.376,1.376,0,0,1,35.565,46.3Zm20.75,1H36.565V46.3a.375.375,0,0,0,.384.365H55.933a.375.375,0,0,0,.383-.365Z" transform="translate(-29.725 -17.194)" fill="#fff"/>
    <path id="Tracé_80364" data-name="Tracé 80364" d="M53.841,35.453a.581.581,0,0,0-.727.369,2.072,2.072,0,0,1-1.962,1.442,2.094,2.094,0,0,1-2.068-2.114V32.46a2.063,2.063,0,0,1,4.017-.707.569.569,0,0,0,.294.329.576.576,0,0,0,.8-.708,3.216,3.216,0,0,0-6.26,1.086v2.689a3.216,3.216,0,0,0,6.278,1.031.576.576,0,0,0-.368-.727Z" transform="translate(-26.943 -15.361)" fill="#fff"/>
    <path id="Tracé_80364_-_Contour" data-name="Tracé 80364 - Contour" d="M51.152,38.916a3.748,3.748,0,0,1-3.721-3.767V32.46a3.716,3.716,0,0,1,7.232-1.25A1.081,1.081,0,0,1,54,32.58l0,0a1.087,1.087,0,0,1-.349.058,1.08,1.08,0,0,1-1.017-.722,1.574,1.574,0,0,0-1.477-1.071,1.593,1.593,0,0,0-1.568,1.613v2.689a1.593,1.593,0,0,0,1.568,1.614,1.574,1.574,0,0,0,1.487-1.1,1.076,1.076,0,1,1,2.045.672A3.719,3.719,0,0,1,51.152,38.916Zm0-9.222a2.747,2.747,0,0,0-2.721,2.766v2.689a2.716,2.716,0,0,0,5.3.875.075.075,0,0,0,0-.06.072.072,0,0,0-.045-.037.067.067,0,0,0-.019,0,.081.081,0,0,0-.076.053,2.563,2.563,0,0,1-5.005-.828V32.46a2.563,2.563,0,0,1,4.99-.87.068.068,0,0,0,.038.041.077.077,0,0,0,.061,0,.078.078,0,0,0,.045-.1A2.728,2.728,0,0,0,51.152,29.694Z" transform="translate(-26.943 -15.361)" fill="#fff"/>
  </g>
</svg>
