<svg id="Groupe_51923" data-name="Groupe 51923" xmlns="http://www.w3.org/2000/svg" width="34.007" height="31.125" viewBox="0 0 34.007 31.125">
  <path id="Tracé_80361" data-name="Tracé 80361" d="M46.016,33.86l-.357-.31.234-.41a2.625,2.625,0,0,0,.333-1.366,2.572,2.572,0,0,0-2.646-2.58H42.3a.577.577,0,0,0-.576.576v8.07a.577.577,0,0,0,.576.576h2.017a2.594,2.594,0,0,0,1.7-4.556Zm-3.138-3.514h.7a1.432,1.432,0,0,1,1.1.445,1.558,1.558,0,0,1,.393,1.01,1.415,1.415,0,0,1-.341.987,1.479,1.479,0,0,1-1.153.44h-.7Zm1.441,6.917H42.878V34.382h1.441a1.441,1.441,0,0,1,0,2.882Z" transform="translate(-27.892 -15.361)" fill="#fff"/>
  <path id="Tracé_80362" data-name="Tracé 80362" d="M38.161,29.6a.6.6,0,0,0-1.108,0l-2.306,8.07a.576.576,0,0,0,1.108.317l.21-.734h3.083l.21.734a.577.577,0,0,0,1.109-.316Zm-1.767,6.5,1.213-4.241L38.82,36.1Z" transform="translate(-28.961 -15.354)" fill="#fff"/>
  <path id="Tracé_80363" data-name="Tracé 80363" d="M59.7,27.569H57.968V24.975a.578.578,0,0,0-.172-.41l-7.3-7.2a.577.577,0,0,0-.406-.166H36.95a2.03,2.03,0,0,0-2.037,2.017v8.358H33.76A4.04,4.04,0,0,0,29.725,31.6v8.07a4.04,4.04,0,0,0,4.035,4.035h1.153V46.3a2.03,2.03,0,0,0,2.037,2.017H55.933A2.029,2.029,0,0,0,57.968,46.3V43.708H59.7a4.039,4.039,0,0,0,4.035-4.035V31.6A4.039,4.039,0,0,0,59.7,27.569Zm-9.03-8.42,5.32,5.25H51.551a.876.876,0,0,1-.883-.865Zm-14.6.062a.875.875,0,0,1,.884-.865H49.515v5.188a2.029,2.029,0,0,0,2.036,2.017h5.265v2.017H36.065ZM56.816,46.3a.875.875,0,0,1-.883.865H36.95a.876.876,0,0,1-.884-.865V43.708h20.75Zm5.764-6.629A2.885,2.885,0,0,1,59.7,42.555H33.76a2.885,2.885,0,0,1-2.882-2.882V31.6a2.885,2.885,0,0,1,2.882-2.882H59.7A2.885,2.885,0,0,1,62.58,31.6Z" transform="translate(-29.725 -17.194)" fill="#fff"/>
  <path id="Tracé_80364" data-name="Tracé 80364" d="M53.841,35.453a.581.581,0,0,0-.727.369,2.072,2.072,0,0,1-1.962,1.442,2.094,2.094,0,0,1-2.068-2.114V32.46a2.063,2.063,0,0,1,4.017-.707.569.569,0,0,0,.294.329.576.576,0,0,0,.8-.708,3.216,3.216,0,0,0-6.26,1.086v2.689a3.216,3.216,0,0,0,6.278,1.031.576.576,0,0,0-.368-.727Z" transform="translate(-26.943 -15.361)" fill="#fff"/>
</svg>
