<svg xmlns="http://www.w3.org/2000/svg" xmlns:xlink="http://www.w3.org/1999/xlink" width="64.137" height="89.074" viewBox="0 0 64.137 89.074">
  <defs>
    <clipPath id="clip-path">
      <path id="Tracé_80399" data-name="Tracé 80399" d="M0,35.037H64.137V-54.037H0Z" transform="translate(0 54.037)" fill="#3e4875"/>
    </clipPath>
  </defs>
  <g id="Groupe_51963" data-name="Groupe 51963" transform="translate(0 54.037)">
    <g id="Groupe_51949" data-name="Groupe 51949" transform="translate(0 -54.037)" clip-path="url(#clip-path)">
      <g id="Groupe_51947" data-name="Groupe 51947" transform="translate(0.618 14.277)">
        <path id="Tracé_80397" data-name="Tracé 80397" d="M23.73,29.178H-34.032A2.578,2.578,0,0,1-36.6,26.6V-42.418A2.578,2.578,0,0,1-34.032-45H23.73a2.579,2.579,0,0,1,2.57,2.583V26.6a2.579,2.579,0,0,1-2.57,2.583M-34.032-43.468a1.048,1.048,0,0,0-1.043,1.05V26.6a1.048,1.048,0,0,0,1.043,1.05H23.73a1.05,1.05,0,0,0,1.047-1.05V-42.418a1.05,1.05,0,0,0-1.047-1.05Z" transform="translate(36.599 45.001)" fill="#3e4875"/>
      </g>
      <g id="Groupe_51948" data-name="Groupe 51948" transform="translate(0.618 14.277)">
        <path id="Tracé_80398" data-name="Tracé 80398" d="M23.73,29.178H-34.032A2.578,2.578,0,0,1-36.6,26.6V-42.418A2.578,2.578,0,0,1-34.032-45H23.73a2.579,2.579,0,0,1,2.57,2.583V26.6A2.579,2.579,0,0,1,23.73,29.178ZM-34.032-43.468a1.048,1.048,0,0,0-1.043,1.05V26.6a1.048,1.048,0,0,0,1.043,1.05H23.73a1.05,1.05,0,0,0,1.047-1.05V-42.418a1.05,1.05,0,0,0-1.047-1.05Z" transform="translate(36.599 45.001)" fill="#3e4875"/>
        <path id="Tracé_80398_-_Contour" data-name="Tracé 80398 - Contour" d="M23.73,30.178H-34.032A3.579,3.579,0,0,1-37.6,26.6V-42.418A3.579,3.579,0,0,1-34.032-46H23.73a3.581,3.581,0,0,1,3.57,3.583V26.6A3.58,3.58,0,0,1,23.73,30.178ZM-34.032-42.468a.049.049,0,0,0-.043.05V26.6a.049.049,0,0,0,.043.05H23.73a.05.05,0,0,0,.047-.05V-42.418a.05.05,0,0,0-.047-.05Z" transform="translate(36.599 45.001)" fill="#3e4875"/>
      </g>
    </g>
    <g id="Groupe_51950" data-name="Groupe 51950" transform="translate(12.788 -17.639)">
      <path id="Tracé_80400" data-name="Tracé 80400" d="M0,7.416,11.229-11.438,22.456,7.416Z" transform="translate(0 11.438)" fill="#3e4875"/>
    </g>
    <g id="Groupe_51951" data-name="Groupe 51951" transform="translate(12.788 -17.639)">
      <path id="Tracé_80401" data-name="Tracé 80401" d="M0,7.416,11.229-11.438,22.456,7.416Z" transform="translate(0 11.438)" fill="#3e4875"/>
      <path id="Tracé_80401_-_Contour" data-name="Tracé 80401 - Contour" d="M24.215,8.416H-1.759L11.229-13.392Zm-22.456-2H20.7l-9.468-15.9Z" transform="translate(0 11.438)" fill="#3e4875"/>
    </g>
    <g id="Groupe_51952" data-name="Groupe 51952" transform="translate(21.746 -24.869)">
      <path id="Tracé_80402" data-name="Tracé 80402" d="M0,10.26,14.793-15.824l14.8,26.084Z" transform="translate(0 15.824)" fill="#3e4875"/>
    </g>
    <g id="Groupe_51953" data-name="Groupe 51953" transform="translate(21.746 -24.869)">
      <path id="Tracé_80403" data-name="Tracé 80403" d="M0,10.26,14.793-15.824l14.8,26.084Z" transform="translate(0 15.824)" fill="#3e4875"/>
      <path id="Tracé_80403_-_Contour" data-name="Tracé 80403 - Contour" d="M31.305,11.26H-1.717L14.793-17.851Zm-29.589-2H27.872L14.793-13.8Z" transform="translate(0 15.824)" fill="#3e4875"/>
    </g>
    <path id="Tracé_80404" data-name="Tracé 80404" d="M5.174-47.1h11.3v7.771H5.174Z" transform="translate(3.355 4.497)" fill="#3e4875"/>
    <path id="Tracé_80404_-_Contour" data-name="Tracé 80404 - Contour" d="M4.174-48.1h13.3v9.771H4.174Zm11.3,2h-9.3v5.771h9.3Z" transform="translate(3.355 4.497)" fill="#3e4875"/>
    <path id="Tracé_80405" data-name="Tracé 80405" d="M26.879-47.1h11.3v7.771h-11.3Z" transform="translate(17.428 4.497)" fill="#3e4875"/>
    <path id="Tracé_80405_-_Contour" data-name="Tracé 80405 - Contour" d="M25.879-48.1h13.3v9.771h-13.3Zm11.3,2h-9.3v5.771h9.3Z" transform="translate(17.428 4.497)" fill="#3e4875"/>
    <g id="Groupe_51962" data-name="Groupe 51962" transform="translate(0 -54.037)" clip-path="url(#clip-path)">
      <g id="Groupe_51954" data-name="Groupe 51954" transform="translate(22.841 72.716)">
        <path id="Tracé_80406" data-name="Tracé 80406" d="M6.532,1.638H-8.228A1.978,1.978,0,0,1-10.074-.447a1.973,1.973,0,0,1,1.846-2.08H6.532A1.975,1.975,0,0,1,8.381-.447,1.979,1.979,0,0,1,6.532,1.638" transform="translate(10.074 2.527)" fill="#3e4875"/>
      </g>
      <g id="Groupe_51955" data-name="Groupe 51955" transform="translate(22.841 72.716)">
        <path id="Tracé_80407" data-name="Tracé 80407" d="M6.532,1.638H-8.228A1.978,1.978,0,0,1-10.074-.447a1.973,1.973,0,0,1,1.846-2.08H6.532A1.975,1.975,0,0,1,8.381-.447,1.979,1.979,0,0,1,6.532,1.638Z" transform="translate(10.074 2.527)" fill="#3e4875"/>
        <path id="Tracé_80407_-_Contour" data-name="Tracé 80407 - Contour" d="M6.532,2.638H-8.228A2.976,2.976,0,0,1-11.074-.447a2.974,2.974,0,0,1,2.846-3.08H6.532A2.975,2.975,0,0,1,9.381-.447,2.981,2.981,0,0,1,6.532,2.638ZM-8.228-1.527a1,1,0,0,0-.846,1.08A1,1,0,0,0-8.228.638H6.532A1,1,0,0,0,7.381-.448a1,1,0,0,0-.849-1.079Z" transform="translate(10.074 2.527)" fill="#3e4875"/>
      </g>
      <g id="Groupe_51956" data-name="Groupe 51956" transform="translate(15.686 65.505)">
        <path id="Tracé_80408" data-name="Tracé 80408" d="M12.172,1.638H-16.953a1.963,1.963,0,0,1-1.82-2.082,1.965,1.965,0,0,1,1.82-2.084H12.172A1.966,1.966,0,0,1,13.99-.443a1.964,1.964,0,0,1-1.818,2.082" transform="translate(18.773 2.527)" fill="#3e4875"/>
      </g>
      <g id="Groupe_51957" data-name="Groupe 51957" transform="translate(15.686 65.505)">
        <path id="Tracé_80409" data-name="Tracé 80409" d="M12.172,1.638H-16.953a1.963,1.963,0,0,1-1.82-2.082,1.965,1.965,0,0,1,1.82-2.084H12.172A1.966,1.966,0,0,1,13.99-.443,1.964,1.964,0,0,1,12.172,1.638Z" transform="translate(18.773 2.527)" fill="#3e4875"/>
        <path id="Tracé_80409_-_Contour" data-name="Tracé 80409 - Contour" d="M12.172,2.638H-16.953a2.963,2.963,0,0,1-2.82-3.082,2.964,2.964,0,0,1,2.82-3.084H12.172A2.963,2.963,0,0,1,14.99-.443,2.962,2.962,0,0,1,12.172,2.638ZM-16.953-1.527c-.444,0-.82.5-.82,1.084s.375,1.082.82,1.082H12.172c.444,0,.818-.5.818-1.082s-.375-1.084-.818-1.084Z" transform="translate(18.773 2.527)" fill="#3e4875"/>
      </g>
      <g id="Groupe_51958" data-name="Groupe 51958" transform="translate(47.887 0.618)">
        <path id="Tracé_80410" data-name="Tracé 80410" d="M1.629.746A1.991,1.991,0,0,0-.444-1.15,1.989,1.989,0,0,0-2.513.746v9.48H1.629Z" transform="translate(2.513 1.15)" fill="#3e4875"/>
      </g>
      <g id="Groupe_51959" data-name="Groupe 51959" transform="translate(47.887 0.618)">
        <path id="Tracé_80411" data-name="Tracé 80411" d="M1.629.746A1.991,1.991,0,0,0-.444-1.15,1.989,1.989,0,0,0-2.513.746v9.48H1.629Z" transform="translate(2.513 1.15)" fill="#3e4875"/>
        <path id="Tracé_80411_-_Contour" data-name="Tracé 80411 - Contour" d="M-.444-2.15A2.992,2.992,0,0,1,2.629.746v10.48H-3.513V.746A2.989,2.989,0,0,1-.444-2.15ZM.629,9.226V.746A1,1,0,0,0-.444-.15a1,1,0,0,0-1.069.9v8.48Z" transform="translate(2.513 1.15)" fill="#3e4875"/>
      </g>
      <g id="Groupe_51960" data-name="Groupe 51960" transform="translate(12.107 0.618)">
        <path id="Tracé_80412" data-name="Tracé 80412" d="M1.629.746A1.988,1.988,0,0,0-.44-1.15,1.99,1.99,0,0,0-2.512.746v9.48H1.629Z" transform="translate(2.512 1.15)" fill="#3e4875"/>
      </g>
      <g id="Groupe_51961" data-name="Groupe 51961" transform="translate(12.107 0.618)">
        <path id="Tracé_80413" data-name="Tracé 80413" d="M1.629.746A1.988,1.988,0,0,0-.44-1.15,1.99,1.99,0,0,0-2.512.746v9.48H1.629Z" transform="translate(2.512 1.15)" fill="#3e4875"/>
        <path id="Tracé_80413_-_Contour" data-name="Tracé 80413 - Contour" d="M-.44-2.15A2.989,2.989,0,0,1,2.629.746v10.48H-3.512V.746A2.991,2.991,0,0,1-.44-2.15ZM.629,9.226V.746A1,1,0,0,0-.44-.15a1,1,0,0,0-1.072.9v8.48Z" transform="translate(2.512 1.15)" fill="#3e4875"/>
      </g>
    </g>
  </g>
</svg>
