<svg xmlns="http://www.w3.org/2000/svg" width="88" height="87.999" viewBox="0 0 88 87.999">
  <g id="Groupe_51925" data-name="Groupe 51925" transform="translate(-2 -2)">
    <path id="Tracé_80371" data-name="Tracé 80371" d="M51.2,12a2.2,2.2,0,1,0,2.2,2.2A2.2,2.2,0,0,0,51.2,12Z" transform="translate(21.934 4.666)" fill="#3e4875"/>
    <path id="Tracé_80372" data-name="Tracé 80372" d="M59.237,2.43a1.468,1.468,0,0,0-2.074,0L45.43,14.163A1.463,1.463,0,0,0,45,15.2V25.466a1.467,1.467,0,0,0,1.467,1.467H56.733a1.463,1.463,0,0,0,1.037-.43L69.5,14.77a1.468,1.468,0,0,0,0-2.074ZM55.837,24H48.631a.7.7,0,0,1-.7-.7V16.1a.7.7,0,0,1,.2-.493l9.569-9.569a.7.7,0,0,1,.989,0l7.2,7.2a.7.7,0,0,1,0,.989L56.33,23.8A.7.7,0,0,1,55.837,24Z" transform="translate(20.067)" fill="#3e4875"/>
    <path id="Tracé_80373" data-name="Tracé 80373" d="M3.467,43.933h4.4v.188a5.679,5.679,0,0,0,4.4,5.521V63a1.467,1.467,0,0,0,1.467,1.467h8.8A1.467,1.467,0,0,0,24,63V57.133h1.478a4.4,4.4,0,0,0,4.388-4.388v-3.1a5.676,5.676,0,0,0,4.045-3.609L58.6,57.007a1.466,1.466,0,0,0,2.062-1.341v-35.2A1.467,1.467,0,0,0,58.6,19.126L33.912,30.1a5.67,5.67,0,0,0-5.324-3.768H13.546a5.684,5.684,0,0,0-5.679,5.679V32.2h-4.4A1.467,1.467,0,0,0,2,33.667v8.8A1.467,1.467,0,0,0,3.467,43.933ZM52.282,25.145l4.469-1.986a.7.7,0,0,1,.983.639V52.334a.7.7,0,0,1-.983.639l-4.469-1.986a.7.7,0,0,1-.415-.639V25.785A.7.7,0,0,1,52.282,25.145Zm-17.6,7.823,13.269-5.9a.7.7,0,0,1,.983.638V48.432a.7.7,0,0,1-.983.638l-13.269-5.9a.7.7,0,0,1-.415-.638v-8.92A.7.7,0,0,1,34.682,32.969Zm-13.615,22.7v5.169a.7.7,0,0,1-.7.7H15.9a.7.7,0,0,1-.7-.7V50.5a.7.7,0,0,1,.7-.7h4.47a.7.7,0,0,1,.7.7Zm5.867-2.922A1.455,1.455,0,0,1,25.478,54.2H24.7a.7.7,0,0,1-.7-.7v-3a.7.7,0,0,1,.7-.7h1.537a.7.7,0,0,1,.7.7ZM10.8,42.467V32.012a2.749,2.749,0,0,1,2.746-2.746H28.588a2.749,2.749,0,0,1,2.746,2.746V44.121a2.749,2.749,0,0,1-2.746,2.746H13.546A2.749,2.749,0,0,1,10.8,44.121ZM5.631,35.133H7.169a.7.7,0,0,1,.7.7V40.3a.7.7,0,0,1-.7.7H5.631a.7.7,0,0,1-.7-.7v-4.47A.7.7,0,0,1,5.631,35.133Z" transform="translate(0 7.933)" fill="#3e4875"/>
    <path id="Tracé_80374" data-name="Tracé 80374" d="M55.9,41.458a1.468,1.468,0,0,0-2.074,0L43.458,51.831a1.468,1.468,0,0,0,0,2.074l14.52,14.52a1.468,1.468,0,0,0,2.074,0L70.423,58.054a1.468,1.468,0,0,0,0-2.074ZM63.665,55.1l-5.8-.446a.7.7,0,0,1-.642-.642l-.446-5.8a.7.7,0,0,1,1.189-.547l6.244,6.242A.7.7,0,0,1,63.665,55.1Zm-5.144,9.714L47.064,53.361a.7.7,0,0,1,0-.989l5.512-5.512a.7.7,0,0,1,1.191.44l.676,8.788a1.468,1.468,0,0,0,1.351,1.351l8.787.676a.7.7,0,0,1,.441,1.189l-5.512,5.51A.7.7,0,0,1,58.521,64.815Z" transform="translate(19.147 18.214)" fill="#3e4875"/>
    <path id="Tracé_80375" data-name="Tracé 80375" d="M32.286,29.537a10.246,10.246,0,0,0,8.213-16.4l7.921-7.921a1.467,1.467,0,0,0,0-2.077h0a1.466,1.466,0,0,0-2.074,0l-7.923,7.92A10.28,10.28,0,0,0,22.9,15.035a10.045,10.045,0,0,0-.207,8.012A10.329,10.329,0,0,0,32.286,29.537Zm0-17.6a7.333,7.333,0,1,1-7.333,7.333A7.334,7.334,0,0,1,32.286,11.937Z" transform="translate(9.314 0.33)" fill="#3e4875"/>
    <path id="Tracé_80376" data-name="Tracé 80376" d="M45.467,44.006H52.8v1.467a1.467,1.467,0,0,0,1.467,1.467H66a1.467,1.467,0,0,0,1.467-1.467V38.167a5.886,5.886,0,0,0-3.932-5.534,5.866,5.866,0,1,0-6.8,0,5.891,5.891,0,0,0-2.458,1.675,5.858,5.858,0,0,0-1.835-1.415,4.4,4.4,0,1,0-5.145,0A5.855,5.855,0,0,0,44,38.14v4.4A1.467,1.467,0,0,0,45.467,44.006ZM60.133,24.94A2.933,2.933,0,1,1,57.2,27.873,2.933,2.933,0,0,1,60.133,24.94Zm-4.4,17.6V38.167a2.961,2.961,0,0,1,2.961-2.961h2.878a2.961,2.961,0,0,1,2.961,2.961v5.141a.7.7,0,0,1-.7.7h-8.1ZM49.867,27.873A1.467,1.467,0,1,1,48.4,29.34,1.467,1.467,0,0,1,49.867,27.873ZM46.933,38.14a2.936,2.936,0,0,1,3.426-2.894A3.044,3.044,0,0,1,52.8,38.3v2.078a.7.7,0,0,1-.7.7h-4.47a.7.7,0,0,1-.7-.7Z" transform="translate(19.6 9.327)" fill="#3e4875"/>
    <path id="Tracé_80377" data-name="Tracé 80377" d="M35.133,43H29.266a1.463,1.463,0,0,0-1.037.43l-8.8,8.8a1.468,1.468,0,0,0,0,2.074L35.563,70.437a1.468,1.468,0,0,0,2.074,0L49.37,58.7a1.468,1.468,0,0,0,0-2.074l-13.2-13.2A1.463,1.463,0,0,0,35.133,43Zm.972,23.832L23.035,53.761a.7.7,0,0,1,0-.989l6.635-6.635a.7.7,0,0,1,.493-.2h4.074a.7.7,0,0,1,.493.2L45.765,57.172a.7.7,0,0,1,0,.989l-8.671,8.671A.7.7,0,0,1,36.106,66.832Z" transform="translate(7.934 19.133)" fill="#3e4875"/>
    <rect id="Rectangle_64" data-name="Rectangle 64" width="8.297" height="2.933" rx="1" transform="translate(36.164 74.296) rotate(-45)" fill="#3e4875"/>
    <rect id="Rectangle_65" data-name="Rectangle 65" width="8.297" height="2.933" rx="1" transform="translate(40.563 78.696) rotate(-45)" fill="#3e4875"/>
  </g>
</svg>
