<svg xmlns="http://www.w3.org/2000/svg" width="28.401" height="33.125" viewBox="0 0 28.401 33.125">
  <g id="noun_Home_1315561" data-name="noun Home 1315561" transform="translate(1 1)">
    <g id="Groupe_2" data-name="Groupe 2" transform="translate(0 0)">
      <g id="Groupe_51892" data-name="Groupe 51892" transform="translate(0 0)">
        <path id="Tracé_80328" data-name="Tracé 80328" d="M130.482,314.615a2.163,2.163,0,0,0-1.54-.638h0a2.164,2.164,0,0,0-1.541.639l-9.694,9.7a7.79,7.79,0,0,0-1.964,4.744v13.862a2.171,2.171,0,0,0,2.169,2.185h22.062a2.178,2.178,0,0,0,2.169-2.182V329.055a7.782,7.782,0,0,0-1.964-4.744Zm10.456,14.13v13.4a1.773,1.773,0,0,1-1.761,1.754h-3.934c-.062,0-.386.007-.9.018-5.663.121-9.406.174-11.894.174-4.738,0-4.932-.191-5.209-.462l-.292-.286-.008-.425.008-14.228a5.367,5.367,0,0,1,1.367-3.281l.035-.037,9.346-9.344a1.808,1.808,0,0,1,2.5,0l9.377,9.381a5.354,5.354,0,0,1,1.368,3.283Z" transform="translate(-115.741 -313.977)" fill="#fff"/>
        <path id="Tracé_80328_-_Contour" data-name="Tracé 80328 - Contour" d="M128.94,312.977h0a3.156,3.156,0,0,1,2.248.931l9.735,9.737A8.791,8.791,0,0,1,143.141,329l0,.055v13.865a3.179,3.179,0,0,1-3.167,3.182H117.91a3.171,3.171,0,0,1-3.169-3.185l0-13.917a8.8,8.8,0,0,1,2.217-5.355L117,323.6l9.694-9.7A3.157,3.157,0,0,1,128.94,312.977Zm9.9,13.119-9.358-9.362a.811.811,0,0,0-1.084,0l-9.353,9.352a4.364,4.364,0,0,0-1.1,2.633l-.008,14.189h0a26.091,26.091,0,0,0,4.509.18c2.561,0,6.334-.055,11.873-.173l.138,0c.511-.011.721-.016.786-.016h3.932a.773.773,0,0,0,.763-.761v-13.4A4.352,4.352,0,0,0,138.842,326.1Z" transform="translate(-115.741 -313.977)" fill="#fff"/>
      </g>
    </g>
  </g>
</svg>
