<svg xmlns="http://www.w3.org/2000/svg" width="26.401" height="31.125" viewBox="0 0 26.401 31.125">
  <g id="Groupe_51892" data-name="Groupe 51892" transform="translate(0 0)">
    <path id="Tracé_80328" data-name="Tracé 80328" d="M130.482,314.615a2.163,2.163,0,0,0-1.54-.638h0a2.164,2.164,0,0,0-1.541.639l-9.694,9.7a7.79,7.79,0,0,0-1.964,4.744v13.862a2.171,2.171,0,0,0,2.169,2.185h22.062a2.178,2.178,0,0,0,2.169-2.182V329.055a7.782,7.782,0,0,0-1.964-4.744Zm10.456,14.13v13.4a1.773,1.773,0,0,1-1.761,1.754h-3.934c-.062,0-.386.007-.9.018-5.663.121-9.406.174-11.894.174-4.738,0-4.932-.191-5.209-.462l-.292-.286-.008-.425.008-14.228a5.367,5.367,0,0,1,1.367-3.281l.035-.037,9.346-9.344a1.808,1.808,0,0,1,2.5,0l9.377,9.381a5.354,5.354,0,0,1,1.368,3.283Z" transform="translate(-115.741 -313.977)" fill="#fff"/>
  </g>
</svg>
