<svg xmlns="http://www.w3.org/2000/svg" width="229.871" height="171.619" viewBox="0 0 229.871 171.619">
  <g id="Groupe_51922" data-name="Groupe 51922" transform="translate(-275.704 -242.033)">
    <g id="Groupe_51918" data-name="Groupe 51918" transform="translate(275.704 242.033)">
      <path id="Tracé_80349" data-name="Tracé 80349" d="M318.384,386.135q-10.019-.305-16.826-4.895A29.328,29.328,0,0,1,291.5,370.265a26.424,26.424,0,0,1-3.25-11.895,66.462,66.462,0,0,1,1.874-13,66.466,66.466,0,0,0,1.874-13q0-13.081-16.293-16.293v-3.9a21.907,21.907,0,0,0,11.779-5.7A14.79,14.79,0,0,0,292,295.422a72.73,72.73,0,0,0-1.874-12.66q-1.874-8.987-1.874-12.581a28.73,28.73,0,0,1,2.524-10.4q2.524-6.194,9.294-11.549t18.318-6.195v3.289a19.262,19.262,0,0,0-7.5,2.485,18.307,18.307,0,0,0-6.272,5.853,14.713,14.713,0,0,0-2.524,8.413,100.7,100.7,0,0,0,1.644,12.237,94.072,94.072,0,0,1,1.644,13.768,22.008,22.008,0,0,1-1.223,6.618,28.842,28.842,0,0,1-3.787,7.5,27.761,27.761,0,0,1-7.42,7,32.833,32.833,0,0,1-11.281,4.742,35.369,35.369,0,0,1,11.893,5.546,30.535,30.535,0,0,1,8.759,9.37,21.544,21.544,0,0,1,3.212,11.091,51.856,51.856,0,0,1-.841,7.839q-.842,5.086-1.722,10.173a49.581,49.581,0,0,0-.879,7.839q0,7.036,4.321,11.167c2.882,2.754,4.575,2.841,9.675,4.115Z" transform="translate(-275.704 -242.033)" fill="#ff4057"/>
    </g>
    <g id="Groupe_51919" data-name="Groupe 51919" transform="translate(352.867 269.584)">
      <path id="Tracé_80350" data-name="Tracé 80350" d="M328.448,265.565a8.5,8.5,0,0,0-1.571-.137q-2.669,0-3.729,2.924v15.194h-3.475v-21.24h3.376l.058,2.16a4.322,4.322,0,0,1,3.945-2.552,3.06,3.06,0,0,1,1.374.274Z" transform="translate(-319.673 -254.574)" fill="#5e6fb2"/>
      <path id="Tracé_80351" data-name="Tracé 80351" d="M334.517,283.938a7.754,7.754,0,0,1-6.086-2.364q-2.119-2.367-2.159-6.939v-2.573a11.964,11.964,0,0,1,2.071-7.448,6.87,6.87,0,0,1,5.781-2.7,6.622,6.622,0,0,1,5.575,2.374q1.845,2.374,1.883,7.4v2.276H329.728v.491q0,3.414,1.285,4.966a4.535,4.535,0,0,0,3.7,1.55,6.006,6.006,0,0,0,2.7-.579,6.72,6.72,0,0,0,2.188-1.834l1.806,2.2Q339.148,283.938,334.517,283.938Zm-.393-19.039a3.641,3.641,0,0,0-3.2,1.481,8.8,8.8,0,0,0-1.178,4.6h8.362v-.47a8.121,8.121,0,0,0-1.09-4.319A3.36,3.36,0,0,0,334.124,264.9Z" transform="translate(-314.691 -254.574)" fill="#5e6fb2"/>
      <path id="Tracé_80352" data-name="Tracé 80352" d="M348.454,283.546A7.64,7.64,0,0,1,348,281.23a5.514,5.514,0,0,1-4.71,2.708,6.089,6.089,0,0,1-4.5-1.618,6.175,6.175,0,0,1-1.62-4.565,6.455,6.455,0,0,1,2.2-5.142,9.042,9.042,0,0,1,6.026-1.944h2.552v-2.257a2.979,2.979,0,0,0-3.415-3.513,3.55,3.55,0,0,0-2.552.932,3.123,3.123,0,0,0-.983,2.366h-3.473a5.619,5.619,0,0,1,.962-3.111,6.682,6.682,0,0,1,2.59-2.325,7.77,7.77,0,0,1,3.631-.844,6.911,6.911,0,0,1,4.958,1.62,6.329,6.329,0,0,1,1.736,4.721v10.717a12.959,12.959,0,0,0,.669,4.259v.314Zm-4.633-2.768a4.609,4.609,0,0,0,2.434-.707,4.357,4.357,0,0,0,1.688-1.767v-5.063h-1.964a6.564,6.564,0,0,0-3.9,1.107,3.521,3.521,0,0,0-1.434,2.994,3.879,3.879,0,0,0,.727,2.62A3.153,3.153,0,0,0,343.821,280.779Z" transform="translate(-306.467 -254.574)" fill="#5e6fb2"/>
      <path id="Tracé_80353" data-name="Tracé 80353" d="M353.814,259.208v5.142h3.2v2.808h-3.2v13.187a3.581,3.581,0,0,0,.412,1.908,1.544,1.544,0,0,0,1.413.648,4.358,4.358,0,0,0,1.393-.235l-.039,2.929a7.685,7.685,0,0,1-2.415.388,3.647,3.647,0,0,1-3.14-1.472,6.936,6.936,0,0,1-1.081-4.161v-13.19h-3.238V264.35h3.238v-5.142Z" transform="translate(-298.951 -256.618)" fill="#5e6fb2"/>
      <path id="Tracé_80354" data-name="Tracé 80354" d="M359.1,259.831a2.213,2.213,0,0,1-.491,1.472,1.827,1.827,0,0,1-1.492.59,1.807,1.807,0,0,1-1.472-.59,2.222,2.222,0,0,1-.49-1.472,2.305,2.305,0,0,1,.49-1.492,2.089,2.089,0,0,1,2.955.011A2.281,2.281,0,0,1,359.1,259.831Zm-.276,26.873h-3.473v-21.24h3.473Z" transform="translate(-292.888 -257.732)" fill="#5e6fb2"/>
      <path id="Tracé_80355" data-name="Tracé 80355" d="M359.939,271.944a11.1,11.1,0,0,1,2.248-7.33,7.338,7.338,0,0,1,5.937-2.7,7.424,7.424,0,0,1,5.939,2.631,10.909,10.909,0,0,1,2.306,7.164v2.238a11.07,11.07,0,0,1-2.238,7.3,7.992,7.992,0,0,1-11.886.079,10.842,10.842,0,0,1-2.306-7.067Zm3.475,2A9.006,9.006,0,0,0,364.7,279.1a4,4,0,0,0,3.466,1.874q4.591,0,4.73-6.634v-2.4a9.006,9.006,0,0,0-1.3-5.152,4.015,4.015,0,0,0-3.475-1.894,3.959,3.959,0,0,0-3.426,1.894,9.027,9.027,0,0,0-1.285,5.133Z" transform="translate(-289.275 -254.574)" fill="#5e6fb2"/>
      <path id="Tracé_80356" data-name="Tracé 80356" d="M375.129,262.306l.1,2.3a6.2,6.2,0,0,1,5.163-2.689q5.633,0,5.711,7.518v14.113h-3.454V269.589a5.786,5.786,0,0,0-.835-3.543,3,3,0,0,0-2.5-1.05,3.523,3.523,0,0,0-2.325.863,6.2,6.2,0,0,0-1.658,2.257v15.429h-3.475v-21.24Z" transform="translate(-280.282 -254.574)" fill="#5e6fb2"/>
    </g>
    <g id="Groupe_51920" data-name="Groupe 51920" transform="translate(316.089 310.077)">
      <path id="Tracé_80357" data-name="Tracé 80357" d="M374.279,356.863H339.111V351.8a23.977,23.977,0,0,0,6.495-.632,2.8,2.8,0,0,0,2.036-3,9.242,9.242,0,0,0-.66-3.355l-3.522-8.806H319.243l-1.816,4.844a19.387,19.387,0,0,0-1.541,5.888q0,3.3,2.561,4.182a18.328,18.328,0,0,0,5.97.881v5.063h-25.7V351.8a10.9,10.9,0,0,0,5.228-1.155,11.636,11.636,0,0,0,4.1-4.375,59,59,0,0,0,4.21-9.11l21.517-56.355H339l22.728,58.117q2.477,6.165,3.633,8.338a8.287,8.287,0,0,0,3.192,3.357,11.485,11.485,0,0,0,5.723,1.183Zm-32.8-26.25L331.186,304.58l-9.8,26.033Z" transform="translate(-298.716 -280.806)" fill="#ff4057"/>
      <path id="Tracé_80358" data-name="Tracé 80358" d="M391.655,306.121a6.592,6.592,0,0,1-1.953,5.037,6.479,6.479,0,0,1-4.6,1.843,6.848,6.848,0,0,1-5.5-3.082,14.969,14.969,0,0,0-1.816-1.981,3.061,3.061,0,0,0-2.036-.605q-4.293,0-6.686,4.651a20.834,20.834,0,0,0-2.394,9.659v9.577q0,4.622,1.183,6.328t6.246,1.706h2.917v5.063H342.84v-5.063H345.7q4.625,0,5.668-1.76t1.046-6.274v-16.07a13.536,13.536,0,0,0-.742-5.284A3.872,3.872,0,0,0,349,307.746a25.884,25.884,0,0,0-6.163-.523V302.16l21.463-4.733q.827,2.806,1.541,11.942a23.521,23.521,0,0,1,4.045-5.944,21.213,21.213,0,0,1,5.614-4.349,13.405,13.405,0,0,1,6.356-1.65,9.91,9.91,0,0,1,7.155,2.531A8.22,8.22,0,0,1,391.655,306.121Z" transform="translate(-265.405 -268.258)" fill="#ff4057"/>
      <path id="Tracé_80359" data-name="Tracé 80359" d="M431.264,303.526a8.872,8.872,0,0,0-3.687,1.209,8.043,8.043,0,0,0-2.394,2.725q-1.074,1.843-3.826,7.457l-16.124,33.461q-5.394,11.061-7.348,14.722a20.076,20.076,0,0,1-4.431,5.805,9.067,9.067,0,0,1-6.163,2.146,6.708,6.708,0,0,1-4.4-1.541,4.842,4.842,0,0,1-1.871-3.906,5.414,5.414,0,0,1,2.285-4.872,21.479,21.479,0,0,1,5.916-2.559,13.165,13.165,0,0,0,7.485-5.228,46.139,46.139,0,0,0,4.458-8.31l-20.968-36.929a9.418,9.418,0,0,0-2.7-3.44,6.421,6.421,0,0,0-3.357-.742v-5.065H400.83v5.065h-1.706q-3.8,0-3.8,1.815a9.593,9.593,0,0,0,1.541,3.8l11.612,20.419,8.585-17.446q1.816-3.743,1.816-5.119a2.816,2.816,0,0,0-1.623-2.559,7.715,7.715,0,0,0-3.826-.907v-5.065h17.832Z" transform="translate(-241.778 -267.478)" fill="#ff4057"/>
    </g>
    <g id="Groupe_51921" data-name="Groupe 51921" transform="translate(311.917 263.224)">
      <path id="Tracé_80360" data-name="Tracé 80360" d="M314.713,282.836c-5.705,0-9.487-4.247-9.487-10.219,0-5.839,3.984-10.151,9.487-10.151a9.21,9.21,0,0,1,9.3,7.28h9.038a18.464,18.464,0,0,0-36.71,2.938,18.475,18.475,0,0,0,36.2,5.239h-9.424A9.29,9.29,0,0,1,314.713,282.836Z" transform="translate(-296.339 -254.108)" fill="#ff4057"/>
    </g>
  </g>
</svg>
