<svg xmlns="http://www.w3.org/2000/svg" width="112.891" height="80.422" viewBox="0 0 112.891 80.422">
  <g id="Groupe_51924" data-name="Groupe 51924" transform="translate(-12.663 -15.381)">
    <path id="Tracé_80367" data-name="Tracé 80367" d="M112.528,69.771l-8.358-3.623a1.716,1.716,0,0,0-2.388,1.592v1.894h-65.2a1.729,1.729,0,0,0,0,3.445h65.2v1.894a1.728,1.728,0,0,0,.769,1.372,1.644,1.644,0,0,0,1.619.137l8.358-3.609a1.73,1.73,0,0,0,0-3.17Z" transform="translate(8.134 18.67)" fill="#3e4875"/>
    <path id="Tracé_80367_-_Contour" data-name="Tracé 80367 - Contour" d="M103.5,65.509a2.2,2.2,0,0,1,.868.178l7.662,3.321v-.07l.7.3a2.229,2.229,0,0,1,0,4.087l-8.354,3.608a2.144,2.144,0,0,1-2.1-.18,2.233,2.233,0,0,1-.988-1.768V73.578l-64.749,0a2.229,2.229,0,0,1,0-4.441l.045,0h64.7V67.739a2.216,2.216,0,0,1,2.216-2.23Zm9.16,4.862-8.687-3.766a1.2,1.2,0,0,0-.473-.1,1.216,1.216,0,0,0-1.216,1.227v2.4H36.6a1.229,1.229,0,0,0,0,2.445h65.68v2.384a1.23,1.23,0,0,0,.546.967l.006,0a1.144,1.144,0,0,0,1.127.1l.011,0,8.358-3.61a1.23,1.23,0,0,0,.328-2.041Z" transform="translate(8.134 18.67)" fill="#3e4875"/>
    <path id="Tracé_80369" data-name="Tracé 80369" d="M89.766,39.64a10.979,10.979,0,1,0,10.883,11.076v-.1A10.979,10.979,0,0,0,89.766,39.64Zm0,18.446a7.507,7.507,0,1,1,7.452-7.562v.069A7.494,7.494,0,0,1,89.766,58.086Z" transform="translate(24.404 8.849)" fill="#3e4875"/>
    <path id="Tracé_80369_-_Contour" data-name="Tracé 80369 - Contour" d="M89.667,39.14h.1A11.479,11.479,0,0,1,101.149,50.62v.1A11.48,11.48,0,1,1,89.667,39.14ZM89.672,61.1a10.509,10.509,0,0,0,10.477-10.387V50.62A10.51,10.51,0,0,0,89.761,40.14h-.095A10.479,10.479,0,0,0,89.578,61.1Zm.039-18.527a8.007,8.007,0,0,1,8.006,7.949v.072a7.994,7.994,0,0,1-7.949,7.993H89.71a8.007,8.007,0,0,1-.058-16.015Zm0,15.015h.052a7.011,7.011,0,0,0,6.956-6.994v-.069a7.025,7.025,0,0,0-7.006-6.953H89.66a7.007,7.007,0,0,0,.05,14.015Z" transform="translate(24.404 8.849)" fill="#3e4875"/>
    <path id="Tracé_80370" data-name="Tracé 80370" d="M63.788,80.919h.137A1.729,1.729,0,0,0,65.6,79.547c7.521-30.262,16.785-38.565,23.222-40.171,6.862-1.729,12.53,3.527,14.658,5.874a1.689,1.689,0,0,0,2.383.154l.033-.03a1.744,1.744,0,0,0,.124-2.443c-5.366-5.929-11.94-8.454-18.034-6.862-9.429,2.388-17.265,13.848-23.331,34.105C61.674,50.849,53.81,34.723,42.474,25.116a36.889,36.889,0,0,0-27.888-9.072,1.729,1.729,0,0,0,.329,3.431A33.119,33.119,0,0,1,40.237,27.71C52.589,38.182,60.59,57,62.2,79.355A1.715,1.715,0,0,0,63.788,80.919Z" transform="translate(0 0)" fill="#3e4875"/>
    <path id="Tracé_80370_-_Contour" data-name="Tracé 80370 - Contour" d="M63.928,81.419h-.174A2.2,2.2,0,0,1,61.7,79.4v-.007c-1.6-22.218-9.536-40.916-21.784-51.3l-.009-.008A32.582,32.582,0,0,0,18.2,19.812c-1.075,0-2.163.054-3.234.161l-.043,0h-.029a2.229,2.229,0,0,1-.395-4.423l.041-.006c1.166-.11,2.351-.166,3.521-.166A37.361,37.361,0,0,1,42.8,24.738,58.321,58.321,0,0,1,57.147,43.781,89.889,89.889,0,0,1,64.8,67.988C67.69,58.813,71,51.47,74.645,46.138A32.088,32.088,0,0,1,80.9,39.166a18.388,18.388,0,0,1,6.96-3.582,14.9,14.9,0,0,1,3.761-.482c5.148,0,10.392,2.661,14.766,7.494a2.254,2.254,0,0,1-.156,3.147l-.041.037a2.189,2.189,0,0,1-3.085-.2c-1.651-1.821-6.076-6.05-11.536-6.05a10.758,10.758,0,0,0-2.626.328c-3.817.952-7.488,4.025-10.911,9.133-4.56,6.8-8.579,17.121-11.945,30.666a2.216,2.216,0,0,1-2.157,1.76Zm-.121-1h.116a1.222,1.222,0,0,0,1.188-.976l0-.017c3.4-13.661,7.462-24.088,12.087-30.99,3.566-5.32,7.434-8.532,11.5-9.546a11.757,11.757,0,0,1,2.87-.358A14.207,14.207,0,0,1,99.2,40.96a23.276,23.276,0,0,1,4.645,3.954l.005.006a1.189,1.189,0,0,0,1.673.111l.029-.026a1.248,1.248,0,0,0,.088-1.742c-4.179-4.617-9.16-7.162-14.022-7.162a13.9,13.9,0,0,0-3.512.451c-9.24,2.34-16.97,13.7-22.979,33.765l-.973-.067C61.175,50.889,53.359,35,42.151,25.5l-.008-.007a36.362,36.362,0,0,0-24.083-9.11c-1.132,0-2.277.054-3.4.16a1.229,1.229,0,0,0,.234,2.436c1.1-.108,2.209-.163,3.31-.163a33.58,33.58,0,0,1,22.366,8.52c12.448,10.556,20.514,29.5,22.129,51.982A1.209,1.209,0,0,0,63.807,80.419Z" transform="translate(0 0)" fill="#3e4875"/>
  </g>
</svg>
