<svg id="Groupe_51908" data-name="Groupe 51908" xmlns="http://www.w3.org/2000/svg" width="31.126" height="31.125" viewBox="0 0 31.126 31.125">
  <path id="Tracé_80346" data-name="Tracé 80346" d="M717.309,332.7l-.409-.408.364-.449a12.043,12.043,0,0,0,2.717-7.655,12.187,12.187,0,1,0-12.187,12.187,12.043,12.043,0,0,0,7.655-2.717l.449-.363.408.409,9.216,9.216a.709.709,0,1,0,1-1Zm-9.515,2.257a10.769,10.769,0,1,1,10.769-10.769A10.782,10.782,0,0,1,707.795,334.958Z" transform="translate(-695.608 -312.002)" fill="#fff"/>
</svg>
