<svg xmlns="http://www.w3.org/2000/svg" width="33.126" height="33.125" viewBox="0 0 33.126 33.125">
  <g id="Groupe_51908" data-name="Groupe 51908" transform="translate(1 1)">
    <path id="Tracé_80346" data-name="Tracé 80346" d="M717.309,332.7l-.409-.408.364-.449a12.043,12.043,0,0,0,2.717-7.655,12.187,12.187,0,1,0-12.187,12.187,12.043,12.043,0,0,0,7.655-2.717l.449-.363.408.409,9.216,9.216a.709.709,0,1,0,1-1Zm-9.515,2.257a10.769,10.769,0,1,1,10.769-10.769A10.782,10.782,0,0,1,707.795,334.958Z" transform="translate(-695.608 -312.002)" fill="#ff4057"/>
    <path id="Tracé_80346_-_Contour" data-name="Tracé 80346 - Contour" d="M726.025,344.127a1.7,1.7,0,0,1-1.207-.5l-8.992-8.992a13.02,13.02,0,0,1-8.031,2.74,13.187,13.187,0,1,1,13.187-13.187,13.02,13.02,0,0,1-2.74,8.031l8.991,8.991a1.709,1.709,0,0,1-1.208,2.917Zm-18.23-29.708a9.769,9.769,0,1,0,9.769,9.769A9.78,9.78,0,0,0,707.795,314.419Z" transform="translate(-695.608 -312.002)" fill="#fff"/>
  </g>
</svg>
