<svg xmlns="http://www.w3.org/2000/svg" width="18.698" height="18.652" viewBox="0 0 18.698 18.652">
  <g transform="translate(-150.75 -117.25)">
    <path id="Search_Icon" data-name="Search Icon" d="M394.87-268.949h0l-3.818-3.815a8.033,8.033,0,0,1-5.036,1.786A8.023,8.023,0,0,1,378-278.989,8.023,8.023,0,0,1,386.016-287a8.022,8.022,0,0,1,8.015,8.011,8.018,8.018,0,0,1-1.787,5.032l3.846,3.843-1.219,1.165Zm-8.854-16.365a6.334,6.334,0,0,0-6.329,6.324,6.334,6.334,0,0,0,6.329,6.324,6.333,6.333,0,0,0,6.328-6.324A6.333,6.333,0,0,0,386.016-285.314Z" transform="translate(-227 404.5)" fill="#5e6fb2"/>
    <path id="Search_Icon_-_Contour" data-name="Search Icon - Contour" d="M394.866-268.6l-.174-.175-3.66-3.657a8.282,8.282,0,0,1-5.016,1.7,8.273,8.273,0,0,1-8.266-8.261,8.273,8.273,0,0,1,8.266-8.261,8.273,8.273,0,0,1,8.265,8.261,8.268,8.268,0,0,1-1.7,5.012l3.869,3.867Zm-3.8-4.5,3.8,3.8.858-.82-3.824-3.821.142-.175a7.768,7.768,0,0,0,1.732-4.874,7.772,7.772,0,0,0-7.765-7.761,7.772,7.772,0,0,0-7.766,7.761,7.772,7.772,0,0,0,7.766,7.761,7.781,7.781,0,0,0,4.878-1.731Zm-5.053.686a6.584,6.584,0,0,1-6.579-6.574,6.584,6.584,0,0,1,6.579-6.574,6.584,6.584,0,0,1,6.578,6.574A6.584,6.584,0,0,1,386.016-272.415Zm0-12.649a6.083,6.083,0,0,0-6.079,6.074,6.083,6.083,0,0,0,6.079,6.074,6.083,6.083,0,0,0,6.078-6.074A6.083,6.083,0,0,0,386.016-285.064Z" transform="translate(-227 404.5)" fill="#5e6fb2"/>
  </g>
</svg>
