<svg xmlns="http://www.w3.org/2000/svg" width="20.751" height="20.737" viewBox="0 0 20.751 20.737">
  <g id="search_1_" data-name="search (1)" transform="translate(0.25 0.25)">
    <g id="Groupe_39" data-name="Groupe 39" transform="translate(0 0)">
      <path id="Tracé_98" data-name="Tracé 98" d="M20.127,18.922l-5.883-5.879a8.033,8.033,0,1,0-1.193,1.192l5.883,5.879a.422.422,0,0,0,.6,0l.6-.6A.421.421,0,0,0,20.127,18.922ZM8.016,14.335a6.324,6.324,0,1,1,6.328-6.324A6.333,6.333,0,0,1,8.016,14.335Z" transform="translate(0 0)" fill="#5e6fb2"/>
      <path id="Tracé_98_-_Contour" data-name="Tracé 98 - Contour" d="M19.233,20.487a.668.668,0,0,1-.475-.2l-5.726-5.722a8.276,8.276,0,1,1,1.547-1.546L20.3,18.745a.671.671,0,0,1,0,.95l-.6.6A.668.668,0,0,1,19.233,20.487ZM13.069,13.9l6.042,6.038a.176.176,0,0,0,.243,0l.6-.6a.171.171,0,0,0,0-.243L13.909,13.06l.142-.175a7.783,7.783,0,1,0-1.156,1.155Zm-5.053.686a6.574,6.574,0,1,1,6.578-6.574A6.584,6.584,0,0,1,8.016,14.585Zm0-12.648a6.074,6.074,0,1,0,6.078,6.074A6.083,6.083,0,0,0,8.016,1.936Z" transform="translate(0 0)" fill="#5e6fb2"/>
    </g>
  </g>
</svg>
